<svg width="15" height="16" viewBox="0 0 15 16" fill="none" xmlns="http://www.w3.org/2000/svg">
<path fill-rule="evenodd" clip-rule="evenodd" d="M14.7071 8.293C14.8946 8.48053 14.9999 8.73484 14.9999 9C14.9999 9.26516 14.8946 9.51947 14.7071 9.707L8.70708 15.707C8.51955 15.8945 8.26525 15.9998 8.00008 15.9998C7.73492 15.9998 7.48061 15.8945 7.29308 15.707L1.29308 9.707C1.19757 9.61475 1.12139 9.50441 1.06898 9.3824C1.01657 9.2604 0.988985 9.12918 0.987831 8.9964C0.986677 8.86362 1.01198 8.73194 1.06226 8.60905C1.11254 8.48615 1.18679 8.3745 1.28069 8.28061C1.37458 8.18671 1.48623 8.11246 1.60913 8.06218C1.73202 8.0119 1.8637 7.9866 1.99648 7.98775C2.12926 7.9889 2.26048 8.01649 2.38249 8.0689C2.50449 8.12131 2.61483 8.19749 2.70708 8.293L7.00008 12.586V1C7.00008 0.734784 7.10544 0.48043 7.29297 0.292893C7.48051 0.105357 7.73486 0 8.00008 0C8.2653 0 8.51965 0.105357 8.70719 0.292893C8.89472 0.48043 9.00008 0.734784 9.00008 1V12.586L13.2931 8.293C13.4806 8.10553 13.7349 8.00021 14.0001 8.00021C14.2652 8.00021 14.5196 8.10553 14.7071 8.293Z" fill="#2A2A2A"/>
</svg>
