<svg width="32" height="32" viewBox="0 0 32 32" fill="none" xmlns="http://www.w3.org/2000/svg">
<path d="M16 32C24.8366 32 32 24.8366 32 16C32 7.16344 24.8366 0 16 0C7.16344 0 0 7.16344 0 16C0 24.8366 7.16344 32 16 32Z" fill="url(#paint0_radial)"/>
<path d="M15.9998 31.0855C24.3314 31.0855 31.0855 24.3314 31.0855 15.9998C31.0855 7.66817 24.3314 0.914062 15.9998 0.914062C7.66817 0.914062 0.914062 7.66817 0.914062 15.9998C0.914062 24.3314 7.66817 31.0855 15.9998 31.0855Z" fill="url(#paint1_radial)"/>
<path d="M15.9993 29.2574C23.321 29.2574 29.2565 23.322 29.2565 16.0003C29.2565 8.67859 23.321 2.74316 15.9993 2.74316C8.67761 2.74316 2.74219 8.67859 2.74219 16.0003C2.74219 23.322 8.67761 29.2574 15.9993 29.2574Z" stroke="#965A3C" stroke-miterlimit="10" stroke-linecap="round" stroke-dasharray="0.1 3"/>
<g filter="url(#filter0_d)">
<path d="M16.856 14.4865C18.7646 14.8814 20.0151 15.4079 20.6732 16.1976C21.3314 16.9216 21.6605 17.9746 21.6605 19.2251C21.6605 20.5414 21.1998 21.726 20.3442 22.7133C19.4886 23.7005 18.3039 24.227 16.7902 24.2928V26.0698H15.5397V24.2928C12.4465 23.9637 10.8011 22.2526 10.5378 19.2909H12.9072C13.1046 21.1995 14.026 22.2526 15.6714 22.5816V16.1976C12.5781 15.6053 11.0644 14.0916 11.0644 11.7223C11.0644 10.406 11.4592 9.28714 12.3148 8.49736C13.1704 7.70759 14.2893 7.18108 15.6714 7.04945V5.27246H16.856V7.04945C19.5544 7.24689 21.0681 8.62899 21.3314 11.1958H19.0937C18.9621 9.81365 18.2381 8.95806 16.856 8.76062V14.4865ZM15.6055 14.289V8.76062C14.026 9.02388 13.1704 9.94528 13.1704 11.5248C13.1704 12.3804 13.3679 12.9727 13.8286 13.3676C14.2893 13.7625 14.9474 14.0916 15.6055 14.289ZM16.856 22.5816C18.633 22.3842 19.4886 21.2653 19.4886 19.3567C19.4886 18.567 19.2911 17.9746 18.9621 17.5139C18.633 17.119 17.909 16.7242 16.856 16.4609V22.5816Z" fill="#965A3C"/>
</g>
<defs>
<filter id="filter0_d" x="9.53784" y="4.27246" width="17.1226" height="26.7973" filterUnits="userSpaceOnUse" color-interpolation-filters="sRGB">
<feFlood flood-opacity="0" result="BackgroundImageFix"/>
<feColorMatrix in="SourceAlpha" type="matrix" values="0 0 0 0 0 0 0 0 0 0 0 0 0 0 0 0 0 0 127 0"/>
<feOffset dx="2" dy="2"/>
<feGaussianBlur stdDeviation="1.5"/>
<feColorMatrix type="matrix" values="0 0 0 0 0 0 0 0 0 0 0 0 0 0 0 0 0 0 0.13 0"/>
<feBlend mode="normal" in2="BackgroundImageFix" result="effect1_dropShadow"/>
<feBlend mode="normal" in="SourceGraphic" in2="effect1_dropShadow" result="shape"/>
</filter>
<radialGradient id="paint0_radial" cx="0" cy="0" r="1" gradientUnits="userSpaceOnUse" gradientTransform="translate(11.4595 5.18919) rotate(73.3856) scale(27.9789)">
<stop stop-color="#FFE895"/>
<stop offset="1" stop-color="#FFC700"/>
</radialGradient>
<radialGradient id="paint1_radial" cx="0" cy="0" r="1" gradientUnits="userSpaceOnUse" gradientTransform="translate(20.8924 16.8152) rotate(89.5342) scale(25.0757)">
<stop stop-color="#FFE195"/>
<stop offset="1" stop-color="#FFCB00"/>
</radialGradient>
</defs>
</svg>
